HIERARCHY
ROOT Hips
{
  OFFSET 55.6403 95.4507 -10.1699
  CHANNELS 6 Xposition Yposition Zposition Zrotation Xrotation Yrotation
  JOINT spine
  {
    OFFSET 0 7.96568 0.458067
    CHANNELS 3 Zrotation Xrotation Yrotation
    JOINT spine1
    {
      OFFSET 0 10.2431 0
      CHANNELS 3 Zrotation Xrotation Yrotation
      JOINT spine2
      {
        OFFSET 0 9.81475 0
        CHANNELS 3 Zrotation Xrotation Yrotation
        JOINT Neck
        {
          OFFSET 0 25.1986 1.20138
          CHANNELS 3 Zrotation Xrotation Yrotation
          JOINT Head
          {
            OFFSET 0 7.61315 0
            CHANNELS 3 Zrotation Xrotation Yrotation
            End Site
            {
              OFFSET 0 18.4281 -6.07733
            }
          }
        }
        JOINT RightShoulder
        {
          OFFSET -4.1327 10.5992 -0.575451
          CHANNELS 3 Zrotation Xrotation Yrotation
          JOINT RightArm
          {
            OFFSET 0 13.9018 0
            CHANNELS 3 Zrotation Xrotation Yrotation
            JOINT RightArmRoll
            {
              OFFSET 0 7.01789 0
              CHANNELS 3 Zrotation Xrotation Yrotation
              JOINT RightForeArm
              {
                OFFSET 0 20.4406 0
                CHANNELS 3 Zrotation Xrotation Yrotation
                JOINT RightForeArmRoll
                {
                  OFFSET 0 7.87516 0
                  CHANNELS 3 Zrotation Xrotation Yrotation
                  JOINT RightHand
                  {
                    OFFSET 0 15.8037 0
                    CHANNELS 3 Zrotation Xrotation Yrotation
                    End Site
                    {
                      OFFSET 0 0 0
                    }
                  }
                }
              }
            }
          }
        }
        JOINT LeftShoulder
        {
          OFFSET 4.1327 10.5992 -0.575451
          CHANNELS 3 Zrotation Xrotation Yrotation
          JOINT LeftArm
          {
            OFFSET 0 13.9018 0
            CHANNELS 3 Zrotation Xrotation Yrotation
            JOINT LeftArmRoll
            {
              OFFSET 0 7.01789 0
              CHANNELS 3 Zrotation Xrotation Yrotation
              JOINT LeftForeArm
              {
                OFFSET 0 20.4406 0
                CHANNELS 3 Zrotation Xrotation Yrotation
                JOINT LeftForeArmRoll
                {
                  OFFSET 0 7.87515 0
                  CHANNELS 3 Zrotation Xrotation Yrotation
                  JOINT LeftHand
                  {
                    OFFSET 0 15.8037 0
                    CHANNELS 3 Zrotation Xrotation Yrotation
                    End Site
                    {
                      OFFSET 0 0 0
                    }
                  }
                }
              }
            }
          }
        }
      }
    }
  }
  JOINT RightUpLeg
  {
    OFFSET -7.06048 -1.2947 -1.08609
    CHANNELS 3 Zrotation Xrotation Yrotation
    JOINT RightUpLegRoll
    {
      OFFSET 0 18.5308 0
      CHANNELS 3 Zrotation Xrotation Yrotation
      JOINT RightLeg
      {
        OFFSET 0 -22.9476 0
        CHANNELS 3 Zrotation Xrotation Yrotation
        JOINT RightLegRoll
        {
          OFFSET 0 23.0226 0
          CHANNELS 3 Zrotation Xrotation Yrotation
          JOINT RightFoot
          {
            OFFSET 0 19.1625 0
            CHANNELS 3 Zrotation Xrotation Yrotation
            JOINT RightToeBase
            {
              OFFSET 0 16.0188 0
              CHANNELS 3 Zrotation Xrotation Yrotation
              End Site
              {
                OFFSET 0.00678979 7.75782 -0.894207
              }
            }
          }
        }
      }
    }
  }
  JOINT LeftUpLeg
  {
    OFFSET 7.06048 -1.2947 -1.08609
    CHANNELS 3 Zrotation Xrotation Yrotation
    JOINT LeftUpLegRoll
    {
      OFFSET 0 18.5309 0
      CHANNELS 3 Zrotation Xrotation Yrotation
      JOINT LeftLeg
      {
        OFFSET 0 22.9475 0
        CHANNELS 3 Zrotation Xrotation Yrotation
        JOINT LeftLegRoll
        {
          OFFSET 0 23.2355 0
          CHANNELS 3 Zrotation Xrotation Yrotation
          JOINT LeftFoot
          {
            OFFSET 0 18.9496 0
            CHANNELS 3 Zrotation Xrotation Yrotation
            JOINT LeftToeBase
            {
              OFFSET 0 16.0188 0
              CHANNELS 3 Zrotation Xrotation Yrotation
              End Site
              {
                OFFSET -0.0304289 7.75782 -0.894206
              }
            }
          }
        }
      }
    }
  }
}
MOTION
Frames: 11
Frame Time: 0.00208333
45.1577 119.057 4.90843 0.797038 2.00422 -1.53607 0.322402 0.16619 -0.298037 0.650441 4.33333 -0.639207 0.659188 5.9783 -0.650906 -24.4593 -35.8454 -12.2699 17.6083 26.5891 -10.4251 62.6997 -5.58638 -3.68132 104.923 4.52683 -13.0881 -3.69505e-006 -7.03947e-007 1.0489e-006 18.5409 49.8803 -10.8177 -7.46894e-006 -2.31496e-006 -3 8.02944 -4.9514 0.697654 -56.1464 -5.17332 3.03517 -114.647 6.32086 17.8889 -5.1684e-015 3.97569e-015 3.18055e-015 -19.4196 42.3754 9.40271 6.38952e-006 2.11069e-006 3 -8.02942 -4.95144 -0.697666 175.542 6.83323 2.58268 180 7.01525e-015 178.831 179.807 14.8719 179.244 -1.95755e-006 -6.86802e-006 0.0965023 -17.435 66.2494 18.1796 8.13649 25.2327 -3.48774 -173.477 9.80558 -2.23507 4.5067e-006 -1.99009e-005 -1.0614 -1.58781 -18.2934 0.226492 3.64242e-006 -1.1545e-006 -0.28321 19.0237 68.4377 -19.8984 -8.13649 25.2327 3.48774 
45.1933 119.192 4.84103 0.770372 2.04595 -1.53895 0.324049 0.173246 -0.300285 0.654081 4.34742 -0.64407 0.662895 5.99239 -0.655838 -24.2621 -35.878 -12.2241 17.4965 26.4849 -10.371 62.9032 -5.60082 -3.70111 104.689 4.66749 -13.1534 -3.69505e-006 -7.03947e-007 1.0489e-006 18.5955 49.9081 -10.8497 -7.46894e-006 -2.31496e-006 -3 8.02944 -4.9514 0.697654 -56.0881 -5.19215 3.04346 -114.654 6.37675 17.9147 3.57812e-015 -7.95139e-016 -3.18055e-015 -19.4265 42.3286 9.39261 6.38952e-006 2.11069e-006 3 -8.02942 -4.95144 -0.697666 175.574 6.97425 2.5643 180 7.01525e-015 178.832 179.814 15.0934 179.235 -1.95755e-006 -6.86802e-006 0.100274 -17.4387 66.2545 18.1833 8.13649 25.2327 -3.48774 -173.432 9.94258 -2.2726 4.5067e-006 -1.99009e-005 -1.06157 -1.58576 -18.5071 0.230281 3.64242e-006 -1.1545e-006 -0.287164 19.0325 68.4469 -19.9068 -8.13649 25.2327 3.48774 
45.1941 119.322 4.80869 0.744099 2.08681 -1.54164 0.325262 0.180599 -0.302773 0.656916 4.36211 -0.649334 0.665801 6.00707 -0.661158 -24.0646 -35.9073 -12.1761 17.3888 26.3779 -10.3164 63.1109 -5.61303 -3.71971 104.451 4.81572 -13.2125 -3.69505e-006 -7.03947e-007 1.0489e-006 18.648 49.9283 -10.8789 -7.46894e-006 -2.31496e-006 -3 8.02944 -4.9514 0.697654 -56.0322 -5.2077 3.04986 -114.657 6.43564 17.935 -5.36719e-015 3.97569e-015 -0 -19.4314 42.2802 9.38133 6.38952e-006 2.11069e-006 3 -8.02942 -4.95144 -0.697666 175.609 7.11458 2.54346 180 7.01525e-015 178.832 179.823 15.316 179.226 -1.95755e-006 -6.86802e-006 0.103938 -17.4421 66.2593 18.1868 8.13649 25.2327 -3.48774 -173.386 10.0821 -2.30998 4.5067e-006 -1.99009e-005 -1.06173 -1.58244 -18.7258 0.234312 3.64242e-006 -1.1545e-006 -0.291262 19.0427 68.4577 -19.9167 -8.13649 25.2327 3.48774 
45.209 119.454 4.74706 0.718397 2.12692 -1.54396 0.326091 0.188197 -0.305451 0.659035 4.37728 -0.65491 0.667994 6.02224 -0.666779 -23.8677 -35.9331 -12.1264 17.2851 26.2685 -10.2616 63.3214 -5.62335 -3.73723 104.213 4.97051 -13.2655 -3.69505e-006 -7.03947e-007 1.0489e-006 18.698 49.9414 -10.905 -7.46894e-006 -2.31496e-006 -3 8.02944 -4.9514 0.697654 -55.979 -5.22005 3.05442 -114.658 6.49754 17.9503 1.17283e-014 -7.95139e-016 -0 -19.4341 42.2297 9.36875 6.38952e-006 2.11069e-006 3 -8.02942 -4.95144 -0.697666 175.644 7.25377 2.52054 180 7.01525e-015 178.832 179.835 15.538 179.216 -1.95755e-006 -6.86802e-006 0.107485 -17.4453 66.2638 18.1901 8.13649 25.2327 -3.48774 -173.339 10.2235 -2.34695 4.5067e-006 -1.99009e-005 -1.06188 -1.57801 -18.9478 0.238539 3.64242e-006 -1.1545e-006 -0.295465 19.0539 68.4696 -19.9277 -8.13649 25.2327 3.48774 
45.2356 119.592 4.70861 0.69344 2.16641 -1.54568 0.326589 0.195984 -0.308272 0.660529 4.39283 -0.66071 0.669563 6.03779 -0.672614 -23.672 -35.9552 -12.0755 17.1855 26.157 -10.207 63.5331 -5.63214 -3.75382 103.975 5.13086 -13.3122 -3.69505e-006 -7.03947e-007 1.0489e-006 18.7452 49.9475 -10.9282 -7.46894e-006 -2.31496e-006 -3 8.02944 -4.9514 0.697654 -55.9285 -5.22927 3.05716 -114.656 6.56246 17.9607 -9.74045e-015 7.15625e-015 3.18055e-015 -19.4348 42.1767 9.35476 6.38952e-006 2.11069e-006 3 -8.02942 -4.95144 -0.697666 175.68 7.39132 2.49594 180 7.01525e-015 178.832 179.85 15.7578 179.207 -1.95755e-006 -6.86802e-006 0.110904 -17.4484 66.268 18.1931 8.13649 25.2327 -3.48774 -173.293 10.3661 -2.38327 4.5067e-006 -1.99009e-005 -1.06203 -1.57264 -19.1714 0.242916 3.64242e-006 -1.1545e-006 -0.299731 19.0659 68.4824 -19.9396 -8.13649 25.2327 3.48774 
45.2283 119.734 4.69783 0.669405 2.20542 -1.54661 0.326807 0.203907 -0.311187 0.661487 4.40866 -0.666648 0.670598 6.05362 -0.678577 -23.4783 -35.9733 -12.0238 17.0899 26.0437 -10.1529 63.7446 -5.63975 -3.7696 103.739 5.29578 -13.3525 -3.69505e-006 -7.03947e-007 1.0489e-006 18.7892 49.9471 -10.9482 -7.46894e-006 -2.31496e-006 -3 8.02944 -4.9514 0.697654 -55.8808 -5.23541 3.05812 -114.653 6.63043 17.9665 -2.50469e-014 9.54166e-015 3.18055e-015 -19.4333 42.1208 9.33925 6.38952e-006 2.11069e-006 3 -8.02942 -4.95144 -0.697666 175.716 7.52676 2.47002 180 7.01525e-015 178.832 179.866 15.9736 179.197 -1.95755e-006 -6.86802e-006 0.114185 -17.4513 66.2721 18.1961 8.13649 25.2327 -3.48774 -173.248 10.5094 -2.41868 4.5067e-006 -1.99009e-005 -1.06217 -1.56649 -19.395 0.247396 3.64242e-006 -1.1545e-006 -0.304022 19.0784 68.4958 -19.9521 -8.13649 25.2327 3.48774 
45.2195 119.856 4.64838 0.646466 2.24406 -1.54653 0.326797 0.211913 -0.314148 0.662 4.42465 -0.672634 0.671187 6.06961 -0.684581 -23.2873 -35.9874 -11.9718 16.9981 25.929 -10.0997 63.9543 -5.64653 -3.7847 103.508 5.46426 -13.3866 -3.69505e-006 -7.03947e-007 1.0489e-006 18.8299 49.9404 -10.9651 -7.46894e-006 -2.31496e-006 -3 8.02944 -4.9514 0.697654 -55.836 -5.23855 3.05735 -114.647 6.70143 17.9681 7.95139e-016 1.59028e-015 -3.18055e-015 -19.4298 42.0614 9.32211 6.38952e-006 2.11069e-006 3 -8.02942 -4.95144 -0.697666 175.751 7.65962 2.44318 180 7.01525e-015 178.833 179.884 16.1838 179.187 -1.95755e-006 -6.86802e-006 0.117318 -17.4541 66.276 18.199 8.13649 25.2327 -3.48774 -173.203 10.6527 -2.45291 4.5067e-006 -1.99009e-005 -1.06231 -1.55975 -19.6169 0.25193 3.64242e-006 -1.1545e-006 -0.308297 19.0911 68.5095 -19.9648 -8.13649 25.2327 3.48774 
45.2275 119.975 4.58856 0.624799 2.28248 -1.54524 0.326609 0.219948 -0.317107 0.662157 4.4407 -0.678581 0.671419 6.08566 -0.690541 -23.0998 -35.9972 -11.9199 16.9103 25.8133 -10.0478 64.161 -5.65283 -3.79927 103.282 5.63531 -13.4142 -3.69505e-006 -7.03947e-007 1.0489e-006 18.8669 49.9278 -10.9787 -7.46894e-006 -2.31496e-006 -3 8.02944 -4.9514 0.697654 -55.7941 -5.23874 3.05488 -114.641 6.7755 17.9656 -1.19271e-014 8.74653e-015 3.18055e-015 -19.4243 41.9982 9.30322 6.38952e-006 2.11069e-006 3 -8.02942 -4.95144 -0.697666 175.786 7.78941 2.41581 180 7.01525e-015 178.833 179.904 16.3868 179.177 -1.95755e-006 -6.86802e-006 0.120293 -17.4569 66.2799 18.2019 8.13649 25.2327 -3.48774 -173.16 10.7955 -2.48572 4.5067e-006 -1.99009e-005 -1.06244 -1.55256 -19.8354 0.25647 3.64242e-006 -1.1545e-006 -0.312517 19.1039 68.5231 -19.9775 -8.13649 25.2327 3.48774 
45.2262 120.1 4.54984 0.604576 2.32081 -1.54253 0.326296 0.227958 -0.320016 0.662047 4.45671 -0.684401 0.671383 6.10166 -0.696369 -22.9166 -36.0025 -11.8685 16.8261 25.6969 -9.99748 64.363 -5.65901 -3.81343 103.064 5.80792 -13.4353 -3.69505e-006 -7.03947e-007 1.0489e-006 18.8998 49.9096 -10.9891 -7.46894e-006 -2.31496e-006 -3 8.02944 -4.9514 0.697654 -55.7554 -5.23606 3.05074 -114.633 6.85263 17.9594 7.95139e-016 3.18055e-015 -3.18055e-015 -19.4167 41.9307 9.28249 6.38952e-006 2.11069e-006 3 -8.02942 -4.95144 -0.697666 175.82 7.91567 2.38828 180 7.01525e-015 178.833 179.923 16.5808 179.167 -1.95755e-006 -6.86802e-006 0.1231 -17.4597 66.2838 18.2047 8.13649 25.2327 -3.48774 -173.119 10.9371 -2.51684 4.5067e-006 -1.99009e-005 -1.06257 -1.54512 -20.0489 0.260969 3.64242e-006 -1.1545e-006 -0.316641 19.1163 68.5363 -19.9899 -8.13649 25.2327 3.48774 
45.2444 120.208 4.53606 0.585973 2.35916 -1.5382 0.325909 0.235889 -0.322825 0.66176 4.47255 -0.690007 0.671166 6.11751 -0.701979 -22.7383 -36.0031 -11.8181 16.7457 25.5802 -9.94912 64.5589 -5.66541 -3.82731 102.855 5.98112 -13.4498 -3.69505e-006 -7.03947e-007 1.0489e-006 18.9284 49.8861 -10.9963 -7.46894e-006 -2.31496e-006 -3 8.02944 -4.9514 0.697654 -55.7199 -5.23056 3.04498 -114.625 6.93285 17.9497 -1.98785e-015 3.18055e-015 6.36111e-015 -19.4072 41.8584 9.25979 6.38952e-006 2.11069e-006 3 -8.02942 -4.95144 -0.697666 175.852 8.03791 2.36098 180 7.01525e-015 178.833 179.943 16.7642 179.158 -1.95755e-006 -6.86802e-006 0.125728 -17.4625 66.2878 18.2077 8.13649 25.2327 -3.48774 -173.08 11.0769 -2.54602 4.5067e-006 -1.99009e-005 -1.06269 -1.53758 -20.2558 0.265376 3.64242e-006 -1.1545e-006 -0.32063 19.1282 68.5489 -20.0017 -8.13649 25.2327 3.48774 
45.2383 120.323 4.49212 0.569161 2.39767 -1.53203 0.325499 0.243687 -0.325488 0.661385 4.48813 -0.69531 0.670858 6.13309 -0.707285 -22.5658 -35.9988 -11.7692 16.6689 25.4635 -9.90306 64.7473 -5.67239 -3.84106 102.657 6.15389 -13.4577 -3.69505e-006 -7.03947e-007 1.0489e-006 18.9524 49.8576 -11 -7.46894e-006 -2.31496e-006 -3 8.02944 -4.9514 0.697654 -55.6877 -5.22232 3.03762 -114.617 7.01615 17.9367 5.1684e-015 1.59028e-015 -0 -19.3956 41.781 9.23504 6.38952e-006 2.11069e-006 3 -8.02942 -4.95144 -0.697666 175.882 8.15565 2.33431 180 7.01526e-015 178.834 179.963 16.9353 179.149 -1.95755e-006 -6.86802e-006 0.128167 -17.4654 66.2918 18.2107 8.13649 25.2327 -3.48774 -173.043 11.2143 -2.573 4.5067e-006 -1.99009e-005 -1.06281 -1.53013 -20.4543 0.269641 3.64242e-006 -1.1545e-006 -0.324443 19.1391 68.5605 -20.0126 -8.13649 25.2327 3.48774 
